HIERARCHY
ROOT SpineBase
{
  OFFSET 0.000000 0.000000 0.000000
  CHANNELS 6 Xposition Yposition Zposition Zrotation Xrotation Yrotation
  JOINT SpineMid
  {
    OFFSET 0.000000 31.667593 0.000000
    CHANNELS 3 Zrotation Xrotation Yrotation
    JOINT SpineShoulder
    {
      OFFSET -0.362132 23.528680 -0.451408
      CHANNELS 3 Zrotation Xrotation Yrotation
      JOINT Neck
      {
        OFFSET -0.132811 7.832608 -0.449576
        CHANNELS 3 Zrotation Xrotation Yrotation
        JOINT Head
        {
          OFFSET -5.458809 13.031715 1.989276
          CHANNELS 3 Zrotation Xrotation Yrotation
          End Site
          {
            OFFSET 0 0 0
          }
        }
      }
      JOINT ShoulderLeft
      {
        OFFSET -15.062847 -3.260118 7.940327
        CHANNELS 3 Zrotation Xrotation Yrotation
        JOINT ElbowLeft
        {
          OFFSET -3.488802 -27.233038 3.197469
          CHANNELS 3 Zrotation Xrotation Yrotation
          JOINT WristLeft
          {
            OFFSET -0.051960 -21.806519 -2.420657
            CHANNELS 3 Zrotation Xrotation Yrotation
            JOINT HandLeft
            {
              OFFSET 1.149834 -5.983110 0.433843
              CHANNELS 3 Zrotation Xrotation Yrotation
              JOINT HandTipLeft
              {
                OFFSET 0.457888 -8.720148 -0.269561
                CHANNELS 3 Zrotation Xrotation Yrotation
                End Site
                {
                  OFFSET 0 0 0
                }
              }
              JOINT ThumbLeft
              {
                OFFSET -2.104206 0.744278 -1.834254
                CHANNELS 3 Zrotation Xrotation Yrotation
                End Site
                {
                  OFFSET 0 0 0
                }
              }
            }
          }
        }
      }
      JOINT ShoulderRight
      {
        OFFSET 12.900166 -2.538900 -7.299968
        CHANNELS 3 Zrotation Xrotation Yrotation
        JOINT ElbowRight
        {
          OFFSET 9.579282 -24.233794 -5.301115
          CHANNELS 3 Zrotation Xrotation Yrotation
          JOINT WristRight
          {
            OFFSET 1.521317 -20.560681 -8.819262
            CHANNELS 3 Zrotation Xrotation Yrotation
            JOINT HandRight
            {
              OFFSET -0.916639 -8.024944 -0.399986
              CHANNELS 3 Zrotation Xrotation Yrotation
              JOINT HandTipRight
              {
                OFFSET -0.737268 -8.477677 -1.540269
                CHANNELS 3 Zrotation Xrotation Yrotation
                End Site
                {
                  OFFSET 0 0 0
                }
              }
              JOINT ThumbRight
              {
                OFFSET 2.330373 -1.699591 -1.474522
                CHANNELS 3 Zrotation Xrotation Yrotation
                End Site
                {
                  OFFSET 0 0 0
                }
              }
            }
          }
        }
      }
    }
  }
  JOINT HipLeft
  {
    OFFSET -6.540389 0.466999 -0.963711
    CHANNELS 3 Zrotation Xrotation Yrotation
    JOINT KneeLeft
    {
      OFFSET 0.392432 -38.486901 -5.317845
      CHANNELS 3 Zrotation Xrotation Yrotation
      JOINT AnkleLeft
      {
        OFFSET 6.890152 -35.553527 2.070207
        CHANNELS 3 Zrotation Xrotation Yrotation
        JOINT FootLeft
        {
          OFFSET -1.791370 -7.529714 -6.892638
          CHANNELS 3 Zrotation Xrotation Yrotation
          End Site
          {
            OFFSET 0 0 0
          }
        }
      }
    }
  }
  JOINT HipRight
  {
    OFFSET 6.936779 1.899140 -5.945311
    CHANNELS 3 Zrotation Xrotation Yrotation
    JOINT KneeRight
    {
      OFFSET 4.375487 -34.523124 -12.234638
      CHANNELS 3 Zrotation Xrotation Yrotation
      JOINT AnkleRight
      {
        OFFSET 8.785656 -38.404283 8.223519
        CHANNELS 3 Zrotation Xrotation Yrotation
        JOINT FootRight
        {
          OFFSET 0.697215 -8.441593 -5.712824
          CHANNELS 3 Zrotation Xrotation Yrotation
          End Site
          {
            OFFSET 0 0 0
          }
        }
      }
    }
  }
}
MOTION
Frames: 7
Frame Time: 0.033333
-28.959399 84.934030 331.196692 1.107726 -5.228252 14.144104 -1.148719 -0.723047 -14.140869 -0.270150 -0.315190 -0.009703 3.036723 3.632053 -1.797237 0.000000 0.000000 0.000000 3.938018 -7.087947 2.313169 -9.087080 38.852620 1.353761 26.878819 0.712920 11.690216 -14.027324 2.242857 -8.150835 0.000000 0.000000 0.000000 0.000000 0.000000 0.000000 9.213138 -12.548859 -9.061054 -39.882593 16.834173 31.116206 -24.657649 -6.941477 -13.985282 28.190041 28.913486 2.323884 0.000000 0.000000 0.000000 0.000000 0.000000 0.000000 -8.321152 8.454031 -11.827166 17.724601 -5.569333 -0.927029 -23.355751 29.738452 9.423874 0.000000 0.000000 0.000000 -2.337659 10.954337 -11.804032 -1.947327 -4.418980 -3.366595 -14.656826 29.491407 19.259398 0.000000 0.000000 0.000000
-29.143758 82.961086 330.289319 0.774697 -5.382138 16.147378 -1.118131 -0.713726 -16.170202 -0.235609 -0.314118 -0.020417 3.222913 4.447153 -1.537177 0.000000 0.000000 0.000000 3.797156 -4.247126 1.839613 -16.838067 34.427381 5.219390 20.821115 4.295424 8.881704 -4.739647 4.612876 -5.983084 0.000000 0.000000 0.000000 0.000000 0.000000 0.000000 7.820024 -9.021702 -7.659430 -41.569848 13.534848 30.699856 -22.413517 -6.975159 -16.222701 22.513133 30.975426 5.916411 0.000000 0.000000 0.000000 0.000000 0.000000 0.000000 -11.672829 14.534418 -11.962254 28.217120 -11.302424 0.695269 -37.109107 33.181822 17.451686 0.000000 0.000000 0.000000 -0.936489 7.561765 -14.966679 -3.760990 0.776562 -1.764741 -19.239726 34.169258 23.596532 0.000000 0.000000 0.000000
-29.397938 81.749136 329.626336 0.745626 -5.431655 18.708154 -1.122347 -0.660986 -18.733324 -0.222897 -0.308126 -0.020407 3.417131 5.346269 -1.248990 0.000000 0.000000 0.000000 3.594862 -1.281474 1.363915 -24.774783 29.531627 8.141351 15.863969 13.064269 8.489610 3.830975 0.884552 -3.859537 0.000000 0.000000 0.000000 0.000000 0.000000 0.000000 6.490043 -4.887517 -5.949307 -44.738623 9.857999 30.096358 -21.421697 -4.595699 -18.398278 17.798573 34.378748 11.337869 0.000000 0.000000 0.000000 0.000000 0.000000 0.000000 -13.748114 20.894824 -12.672305 36.407283 -17.312091 3.466856 -46.302353 34.756778 23.168840 0.000000 0.000000 0.000000 -0.314432 4.264097 -18.470676 -5.065256 4.450834 -0.453429 -21.461114 34.879585 25.376579 0.000000 0.000000 0.000000
-29.510243 82.197919 329.176442 1.106243 -5.672466 20.383716 -1.159686 -0.591167 -20.379802 -0.235047 -0.292783 -0.006682 3.929701 6.369615 -1.149674 0.000000 0.000000 0.000000 3.629147 1.782958 0.924936 -33.287458 26.609499 10.581470 12.513335 19.512260 10.319624 8.547415 -0.009186 -2.029660 0.000000 0.000000 0.000000 0.000000 0.000000 0.000000 6.028059 -1.334562 -4.741299 -49.834446 6.358410 30.102867 -25.254161 -2.433098 -21.239699 9.794485 38.901145 21.798621 0.000000 0.000000 0.000000 0.000000 0.000000 0.000000 -14.379428 23.878177 -13.527724 39.259478 -19.632281 4.759772 -45.585430 37.576818 21.329753 0.000000 0.000000 0.000000 -0.966584 1.573223 -20.711449 -5.574226 8.114344 0.678484 -21.596840 33.858476 24.968588 0.000000 0.000000 0.000000
-29.491157 84.245840 329.137976 1.894922 -6.120400 21.615245 -1.134721 -0.514465 -21.546345 -0.239098 -0.246165 0.026501 3.653921 7.658049 -0.942226 0.000000 0.000000 0.000000 3.315269 4.658832 0.516383 -37.115713 25.155521 11.021112 11.935521 28.626735 14.960020 10.838407 -17.208887 -2.609837 0.000000 0.000000 0.000000 0.000000 0.000000 0.000000 6.209734 1.915828 -4.021730 -56.530895 2.090202 29.995613 -29.572647 -2.219696 -25.175323 14.678823 40.604024 23.863542 0.000000 0.000000 0.000000 0.000000 0.000000 0.000000 -13.401585 24.399489 -15.083483 36.964277 -20.066299 4.289817 -36.854163 30.292962 15.577680 0.000000 0.000000 0.000000 -2.087804 1.323552 -21.901734 -5.232267 9.077366 0.833782 -19.913199 30.086323 22.859662 0.000000 0.000000 0.000000
-29.479582 87.016609 329.331965 2.772202 -6.376931 20.863293 -1.110990 -0.503322 -20.719959 -0.250825 -0.221052 0.062066 3.007710 8.842272 -0.639842 0.000000 0.000000 0.000000 3.150489 5.686319 0.379942 -39.364583 29.374584 12.642564 6.688803 28.248286 16.772321 13.842033 -23.475600 -1.607226 0.000000 0.000000 0.000000 0.000000 0.000000 0.000000 7.497042 3.556002 -4.185518 -62.790271 0.147237 30.706516 -33.162982 -6.300024 -31.674840 9.423280 47.013173 31.896501 0.000000 0.000000 0.000000 0.000000 0.000000 0.000000 -12.699935 23.118181 -15.033643 31.070271 -18.792337 2.650866 -25.797909 26.297334 8.707215 0.000000 0.000000 0.000000 -3.178365 4.028566 -20.307900 -2.739435 3.944582 -0.762837 -15.776831 16.168359 17.256171 0.000000 0.000000 0.000000
-29.483299 89.173825 329.388236 3.569514 -6.431690 20.251698 -1.148902 -0.469353 -20.039596 -0.293205 -0.209787 0.091667 3.709486 9.712746 -0.726052 0.000000 0.000000 0.000000 3.387906 5.388035 0.443297 -39.056053 34.515689 13.618258 5.270927 22.267153 14.818182 14.547170 -22.068054 -1.034625 0.000000 0.000000 0.000000 0.000000 0.000000 0.000000 9.059235 3.843307 -4.762376 -66.059746 0.081604 31.322691 -37.720482 -10.146117 -36.927543 6.221055 52.289111 37.326123 0.000000 0.000000 0.000000 0.000000 0.000000 0.000000 -10.275674 18.844735 -16.140580 21.833043 -14.806717 0.415837 -15.057545 23.751066 2.631270 0.000000 0.000000 0.000000 -4.151145 7.948607 -18.543617 0.461190 -4.774048 -2.845773 -14.121514 8.502131 14.763308 0.000000 0.000000 0.000000
